<?xml version="1.0" encoding="utf-8" standalone="no"?>
<!DOCTYPE svg PUBLIC "-//W3C//DTD SVG 1.1//EN"
  "http://www.w3.org/Graphics/SVG/1.1/DTD/svg11.dtd">
<!-- Created with matplotlib (https://matplotlib.org/) -->
<svg height="345.6pt" version="1.1" viewBox="0 0 460.8 345.6" width="460.8pt" xmlns="http://www.w3.org/2000/svg" xmlns:xlink="http://www.w3.org/1999/xlink">
 <metadata>
  <rdf:RDF xmlns:cc="http://creativecommons.org/ns#" xmlns:dc="http://purl.org/dc/elements/1.1/" xmlns:rdf="http://www.w3.org/1999/02/22-rdf-syntax-ns#">
   <cc:Work>
    <dc:type rdf:resource="http://purl.org/dc/dcmitype/StillImage"/>
    <dc:date>2024-08-04T16:27:25.798525</dc:date>
    <dc:format>image/svg+xml</dc:format>
    <dc:creator>
     <cc:Agent>
      <dc:title>Matplotlib v3.3.4, https://matplotlib.org/</dc:title>
     </cc:Agent>
    </dc:creator>
   </cc:Work>
  </rdf:RDF>
 </metadata>
 <defs>
  <style type="text/css">*{stroke-linecap:butt;stroke-linejoin:round;}</style>
 </defs>
 <g id="figure_1">
  <g id="patch_1">
   <path d="M 0 345.6 
L 460.8 345.6 
L 460.8 0 
L 0 0 
z
" style="fill:#ffffff;"/>
  </g>
  <g id="axes_1">
   <g id="patch_2">
    <path d="M 31.89125 236.05 
L 455.76 236.05 
L 455.76 18.96 
L 31.89125 18.96 
z
" style="fill:#ffffff;"/>
   </g>
   <g id="PolyCollection_1">
    <defs>
     <path d="M 31.89125 -126.435882 
L 31.89125 -119.709223 
L 70.424773 -122.997888 
L 108.958295 -127.452536 
L 147.491818 -138.088561 
L 186.025341 -157.778689 
L 224.558864 -196.484694 
L 263.092386 -124.31358 
L 301.625909 -130.807569 
L 340.159432 -145.145934 
L 378.692955 -170.414007 
L 417.226477 -220.227861 
L 455.76 -313.906334 
L 455.76 -316.772273 
L 455.76 -316.772273 
L 417.226477 -221.298817 
L 378.692955 -171.031089 
L 340.159432 -148.23436 
L 301.625909 -136.613357 
L 263.092386 -130.436883 
L 224.558864 -197.376906 
L 186.025341 -160.361804 
L 147.491818 -139.227395 
L 108.958295 -131.174485 
L 70.424773 -125.357007 
L 31.89125 -126.435882 
z
" id="m7e8ea36250" style="stroke:#1f77b4;stroke-opacity:0.3;"/>
    </defs>
    <g>
     <use style="fill:#1f77b4;fill-opacity:0.3;stroke:#1f77b4;stroke-opacity:0.3;" x="0" xlink:href="#m7e8ea36250" y="345.6"/>
    </g>
   </g>
   <g id="PolyCollection_2">
    <defs>
     <path d="M 31.89125 -120.317481 
L 31.89125 -119.417727 
L 70.424773 -120.651778 
L 108.958295 -122.892904 
L 147.491818 -127.429948 
L 186.025341 -136.322578 
L 224.558864 -154.583281 
L 263.092386 -121.291259 
L 301.625909 -124.237828 
L 340.159432 -129.73322 
L 378.692955 -141.248711 
L 417.226477 -163.796405 
L 455.76 -205.192433 
L 455.76 -205.336861 
L 455.76 -205.336861 
L 417.226477 -164.60113 
L 378.692955 -141.927335 
L 340.159432 -130.583197 
L 301.625909 -124.298073 
L 263.092386 -121.370977 
L 224.558864 -154.755765 
L 186.025341 -136.603967 
L 147.491818 -127.644818 
L 108.958295 -123.131531 
L 70.424773 -120.979475 
L 31.89125 -120.317481 
z
" id="m133050fe0e" style="stroke:#ff7f0e;stroke-opacity:0.3;"/>
    </defs>
    <g>
     <use style="fill:#ff7f0e;fill-opacity:0.3;stroke:#ff7f0e;stroke-opacity:0.3;" x="0" xlink:href="#m133050fe0e" y="345.6"/>
    </g>
   </g>
   <g id="PolyCollection_3">
    <defs>
     <path d="M 31.89125 -120.528467 
L 31.89125 -120.306357 
L 70.424773 -122.05243 
L 108.958295 -125.223138 
L 147.491818 -133.131959 
L 186.025341 -147.580473 
L 224.558864 -176.214968 
L 263.092386 -124.276624 
L 301.625909 -129.33312 
L 340.159432 -139.822378 
L 378.692955 -161.16389 
L 417.226477 -203.352764 
L 455.76 -287.036277 
L 455.76 -289.038663 
L 455.76 -289.038663 
L 417.226477 -204.46143 
L 378.692955 -162.331382 
L 340.159432 -140.442477 
L 301.625909 -129.889715 
L 263.092386 -124.455368 
L 224.558864 -177.297237 
L 186.025341 -147.670223 
L 147.491818 -133.316057 
L 108.958295 -126.080657 
L 70.424773 -122.146855 
L 31.89125 -120.528467 
z
" id="m22d28b520a" style="stroke:#2ca02c;stroke-opacity:0.3;"/>
    </defs>
    <g>
     <use style="fill:#2ca02c;fill-opacity:0.3;stroke:#2ca02c;stroke-opacity:0.3;" x="0" xlink:href="#m22d28b520a" y="345.6"/>
    </g>
   </g>
   <g id="PolyCollection_4">
    <defs>
     <path d="M 31.89125 -119.831516 
L 31.89125 -119.712881 
L 70.424773 -121.07341 
L 108.958295 -123.649889 
L 147.491818 -128.959416 
L 186.025341 -139.550944 
L 224.558864 -160.608803 
L 263.092386 -121.24695 
L 301.625909 -124.049536 
L 340.159432 -129.927764 
L 378.692955 -141.15323 
L 417.226477 -164.517792 
L 455.76 -213.44313 
L 455.76 -214.357213 
L 455.76 -214.357213 
L 417.226477 -167.650715 
L 378.692955 -142.807178 
L 340.159432 -130.577201 
L 301.625909 -124.780501 
L 263.092386 -121.609868 
L 224.558864 -161.604339 
L 186.025341 -139.786253 
L 147.491818 -129.524308 
L 108.958295 -123.890477 
L 70.424773 -121.245668 
L 31.89125 -119.831516 
z
" id="m3cc8dc5631" style="stroke:#d62728;stroke-opacity:0.3;"/>
    </defs>
    <g>
     <use style="fill:#d62728;fill-opacity:0.3;stroke:#d62728;stroke-opacity:0.3;" x="0" xlink:href="#m3cc8dc5631" y="345.6"/>
    </g>
   </g>
   <g id="PolyCollection_5">
    <defs>
     <path d="M 31.89125 -119.545827 
L 31.89125 -119.43217 
L 70.424773 -119.638966 
L 108.958295 -120.049818 
L 147.491818 -120.830937 
L 186.025341 -122.346377 
L 224.558864 -125.453431 
L 263.092386 -126.287758 
L 301.625909 -127.655264 
L 340.159432 -130.184152 
L 378.692955 -135.383229 
L 417.226477 -146.017858 
L 455.76 -166.792178 
L 455.76 -167.186395 
L 455.76 -167.186395 
L 417.226477 -146.185893 
L 378.692955 -135.620121 
L 340.159432 -130.38869 
L 301.625909 -127.736264 
L 263.092386 -126.441463 
L 224.558864 -126.136957 
L 186.025341 -122.750399 
L 147.491818 -121.052971 
L 108.958295 -120.189947 
L 70.424773 -119.688223 
L 31.89125 -119.545827 
z
" id="m73b9eda0b6" style="stroke:#9467bd;stroke-opacity:0.3;"/>
    </defs>
    <g>
     <use style="fill:#9467bd;fill-opacity:0.3;stroke:#9467bd;stroke-opacity:0.3;" x="0" xlink:href="#m73b9eda0b6" y="345.6"/>
    </g>
   </g>
   <g id="matplotlib.axis_1">
    <g id="xtick_1">
     <g id="line2d_1">
      <defs>
       <path d="M 0 0 
L 0 3.5 
" id="m48291f2224" style="stroke:#000000;stroke-width:0.8;"/>
      </defs>
      <g>
       <use style="stroke:#000000;stroke-width:0.8;" x="31.89125" xlink:href="#m48291f2224" y="236.05"/>
      </g>
     </g>
     <g id="text_1">
      <!-- n=128, iter=4 -->
      <g transform="translate(34.650625 314.915625)rotate(-90)scale(0.1 -0.1)">
       <defs>
        <path d="M 54.890625 33.015625 
L 54.890625 0 
L 45.90625 0 
L 45.90625 32.71875 
Q 45.90625 40.484375 42.875 44.328125 
Q 39.84375 48.1875 33.796875 48.1875 
Q 26.515625 48.1875 22.3125 43.546875 
Q 18.109375 38.921875 18.109375 30.90625 
L 18.109375 0 
L 9.078125 0 
L 9.078125 54.6875 
L 18.109375 54.6875 
L 18.109375 46.1875 
Q 21.34375 51.125 25.703125 53.5625 
Q 30.078125 56 35.796875 56 
Q 45.21875 56 50.046875 50.171875 
Q 54.890625 44.34375 54.890625 33.015625 
z
" id="DejaVuSans-110"/>
        <path d="M 10.59375 45.40625 
L 73.1875 45.40625 
L 73.1875 37.203125 
L 10.59375 37.203125 
z
M 10.59375 25.484375 
L 73.1875 25.484375 
L 73.1875 17.1875 
L 10.59375 17.1875 
z
" id="DejaVuSans-61"/>
        <path d="M 12.40625 8.296875 
L 28.515625 8.296875 
L 28.515625 63.921875 
L 10.984375 60.40625 
L 10.984375 69.390625 
L 28.421875 72.90625 
L 38.28125 72.90625 
L 38.28125 8.296875 
L 54.390625 8.296875 
L 54.390625 0 
L 12.40625 0 
z
" id="DejaVuSans-49"/>
        <path d="M 19.1875 8.296875 
L 53.609375 8.296875 
L 53.609375 0 
L 7.328125 0 
L 7.328125 8.296875 
Q 12.9375 14.109375 22.625 23.890625 
Q 32.328125 33.6875 34.8125 36.53125 
Q 39.546875 41.84375 41.421875 45.53125 
Q 43.3125 49.21875 43.3125 52.78125 
Q 43.3125 58.59375 39.234375 62.25 
Q 35.15625 65.921875 28.609375 65.921875 
Q 23.96875 65.921875 18.8125 64.3125 
Q 13.671875 62.703125 7.8125 59.421875 
L 7.8125 69.390625 
Q 13.765625 71.78125 18.9375 73 
Q 24.125 74.21875 28.421875 74.21875 
Q 39.75 74.21875 46.484375 68.546875 
Q 53.21875 62.890625 53.21875 53.421875 
Q 53.21875 48.921875 51.53125 44.890625 
Q 49.859375 40.875 45.40625 35.40625 
Q 44.1875 33.984375 37.640625 27.21875 
Q 31.109375 20.453125 19.1875 8.296875 
z
" id="DejaVuSans-50"/>
        <path d="M 31.78125 34.625 
Q 24.75 34.625 20.71875 30.859375 
Q 16.703125 27.09375 16.703125 20.515625 
Q 16.703125 13.921875 20.71875 10.15625 
Q 24.75 6.390625 31.78125 6.390625 
Q 38.8125 6.390625 42.859375 10.171875 
Q 46.921875 13.96875 46.921875 20.515625 
Q 46.921875 27.09375 42.890625 30.859375 
Q 38.875 34.625 31.78125 34.625 
z
M 21.921875 38.8125 
Q 15.578125 40.375 12.03125 44.71875 
Q 8.5 49.078125 8.5 55.328125 
Q 8.5 64.0625 14.71875 69.140625 
Q 20.953125 74.21875 31.78125 74.21875 
Q 42.671875 74.21875 48.875 69.140625 
Q 55.078125 64.0625 55.078125 55.328125 
Q 55.078125 49.078125 51.53125 44.71875 
Q 48 40.375 41.703125 38.8125 
Q 48.828125 37.15625 52.796875 32.3125 
Q 56.78125 27.484375 56.78125 20.515625 
Q 56.78125 9.90625 50.3125 4.234375 
Q 43.84375 -1.421875 31.78125 -1.421875 
Q 19.734375 -1.421875 13.25 4.234375 
Q 6.78125 9.90625 6.78125 20.515625 
Q 6.78125 27.484375 10.78125 32.3125 
Q 14.796875 37.15625 21.921875 38.8125 
z
M 18.3125 54.390625 
Q 18.3125 48.734375 21.84375 45.5625 
Q 25.390625 42.390625 31.78125 42.390625 
Q 38.140625 42.390625 41.71875 45.5625 
Q 45.3125 48.734375 45.3125 54.390625 
Q 45.3125 60.0625 41.71875 63.234375 
Q 38.140625 66.40625 31.78125 66.40625 
Q 25.390625 66.40625 21.84375 63.234375 
Q 18.3125 60.0625 18.3125 54.390625 
z
" id="DejaVuSans-56"/>
        <path d="M 11.71875 12.40625 
L 22.015625 12.40625 
L 22.015625 4 
L 14.015625 -11.625 
L 7.71875 -11.625 
L 11.71875 4 
z
" id="DejaVuSans-44"/>
        <path id="DejaVuSans-32"/>
        <path d="M 9.421875 54.6875 
L 18.40625 54.6875 
L 18.40625 0 
L 9.421875 0 
z
M 9.421875 75.984375 
L 18.40625 75.984375 
L 18.40625 64.59375 
L 9.421875 64.59375 
z
" id="DejaVuSans-105"/>
        <path d="M 18.3125 70.21875 
L 18.3125 54.6875 
L 36.8125 54.6875 
L 36.8125 47.703125 
L 18.3125 47.703125 
L 18.3125 18.015625 
Q 18.3125 11.328125 20.140625 9.421875 
Q 21.96875 7.515625 27.59375 7.515625 
L 36.8125 7.515625 
L 36.8125 0 
L 27.59375 0 
Q 17.1875 0 13.234375 3.875 
Q 9.28125 7.765625 9.28125 18.015625 
L 9.28125 47.703125 
L 2.6875 47.703125 
L 2.6875 54.6875 
L 9.28125 54.6875 
L 9.28125 70.21875 
z
" id="DejaVuSans-116"/>
        <path d="M 56.203125 29.59375 
L 56.203125 25.203125 
L 14.890625 25.203125 
Q 15.484375 15.921875 20.484375 11.0625 
Q 25.484375 6.203125 34.421875 6.203125 
Q 39.59375 6.203125 44.453125 7.46875 
Q 49.3125 8.734375 54.109375 11.28125 
L 54.109375 2.78125 
Q 49.265625 0.734375 44.1875 -0.34375 
Q 39.109375 -1.421875 33.890625 -1.421875 
Q 20.796875 -1.421875 13.15625 6.1875 
Q 5.515625 13.8125 5.515625 26.8125 
Q 5.515625 40.234375 12.765625 48.109375 
Q 20.015625 56 32.328125 56 
Q 43.359375 56 49.78125 48.890625 
Q 56.203125 41.796875 56.203125 29.59375 
z
M 47.21875 32.234375 
Q 47.125 39.59375 43.09375 43.984375 
Q 39.0625 48.390625 32.421875 48.390625 
Q 24.90625 48.390625 20.390625 44.140625 
Q 15.875 39.890625 15.1875 32.171875 
z
" id="DejaVuSans-101"/>
        <path d="M 41.109375 46.296875 
Q 39.59375 47.171875 37.8125 47.578125 
Q 36.03125 48 33.890625 48 
Q 26.265625 48 22.1875 43.046875 
Q 18.109375 38.09375 18.109375 28.8125 
L 18.109375 0 
L 9.078125 0 
L 9.078125 54.6875 
L 18.109375 54.6875 
L 18.109375 46.1875 
Q 20.953125 51.171875 25.484375 53.578125 
Q 30.03125 56 36.53125 56 
Q 37.453125 56 38.578125 55.875 
Q 39.703125 55.765625 41.0625 55.515625 
z
" id="DejaVuSans-114"/>
        <path d="M 37.796875 64.3125 
L 12.890625 25.390625 
L 37.796875 25.390625 
z
M 35.203125 72.90625 
L 47.609375 72.90625 
L 47.609375 25.390625 
L 58.015625 25.390625 
L 58.015625 17.1875 
L 47.609375 17.1875 
L 47.609375 0 
L 37.796875 0 
L 37.796875 17.1875 
L 4.890625 17.1875 
L 4.890625 26.703125 
z
" id="DejaVuSans-52"/>
       </defs>
       <use xlink:href="#DejaVuSans-110"/>
       <use x="63.378906" xlink:href="#DejaVuSans-61"/>
       <use x="147.167969" xlink:href="#DejaVuSans-49"/>
       <use x="210.791016" xlink:href="#DejaVuSans-50"/>
       <use x="274.414062" xlink:href="#DejaVuSans-56"/>
       <use x="338.037109" xlink:href="#DejaVuSans-44"/>
       <use x="369.824219" xlink:href="#DejaVuSans-32"/>
       <use x="401.611328" xlink:href="#DejaVuSans-105"/>
       <use x="429.394531" xlink:href="#DejaVuSans-116"/>
       <use x="468.603516" xlink:href="#DejaVuSans-101"/>
       <use x="530.126953" xlink:href="#DejaVuSans-114"/>
       <use x="571.240234" xlink:href="#DejaVuSans-61"/>
       <use x="655.029297" xlink:href="#DejaVuSans-52"/>
      </g>
     </g>
    </g>
    <g id="xtick_2">
     <g id="line2d_2">
      <g>
       <use style="stroke:#000000;stroke-width:0.8;" x="70.424773" xlink:href="#m48291f2224" y="236.05"/>
      </g>
     </g>
     <g id="text_2">
      <!-- n=128, iter=8 -->
      <g transform="translate(73.184148 314.915625)rotate(-90)scale(0.1 -0.1)">
       <use xlink:href="#DejaVuSans-110"/>
       <use x="63.378906" xlink:href="#DejaVuSans-61"/>
       <use x="147.167969" xlink:href="#DejaVuSans-49"/>
       <use x="210.791016" xlink:href="#DejaVuSans-50"/>
       <use x="274.414062" xlink:href="#DejaVuSans-56"/>
       <use x="338.037109" xlink:href="#DejaVuSans-44"/>
       <use x="369.824219" xlink:href="#DejaVuSans-32"/>
       <use x="401.611328" xlink:href="#DejaVuSans-105"/>
       <use x="429.394531" xlink:href="#DejaVuSans-116"/>
       <use x="468.603516" xlink:href="#DejaVuSans-101"/>
       <use x="530.126953" xlink:href="#DejaVuSans-114"/>
       <use x="571.240234" xlink:href="#DejaVuSans-61"/>
       <use x="655.029297" xlink:href="#DejaVuSans-56"/>
      </g>
     </g>
    </g>
    <g id="xtick_3">
     <g id="line2d_3">
      <g>
       <use style="stroke:#000000;stroke-width:0.8;" x="108.958295" xlink:href="#m48291f2224" y="236.05"/>
      </g>
     </g>
     <g id="text_3">
      <!-- n=128, iter=16 -->
      <g transform="translate(111.71767 321.278125)rotate(-90)scale(0.1 -0.1)">
       <defs>
        <path d="M 33.015625 40.375 
Q 26.375 40.375 22.484375 35.828125 
Q 18.609375 31.296875 18.609375 23.390625 
Q 18.609375 15.53125 22.484375 10.953125 
Q 26.375 6.390625 33.015625 6.390625 
Q 39.65625 6.390625 43.53125 10.953125 
Q 47.40625 15.53125 47.40625 23.390625 
Q 47.40625 31.296875 43.53125 35.828125 
Q 39.65625 40.375 33.015625 40.375 
z
M 52.59375 71.296875 
L 52.59375 62.3125 
Q 48.875 64.0625 45.09375 64.984375 
Q 41.3125 65.921875 37.59375 65.921875 
Q 27.828125 65.921875 22.671875 59.328125 
Q 17.53125 52.734375 16.796875 39.40625 
Q 19.671875 43.65625 24.015625 45.921875 
Q 28.375 48.1875 33.59375 48.1875 
Q 44.578125 48.1875 50.953125 41.515625 
Q 57.328125 34.859375 57.328125 23.390625 
Q 57.328125 12.15625 50.6875 5.359375 
Q 44.046875 -1.421875 33.015625 -1.421875 
Q 20.359375 -1.421875 13.671875 8.265625 
Q 6.984375 17.96875 6.984375 36.375 
Q 6.984375 53.65625 15.1875 63.9375 
Q 23.390625 74.21875 37.203125 74.21875 
Q 40.921875 74.21875 44.703125 73.484375 
Q 48.484375 72.75 52.59375 71.296875 
z
" id="DejaVuSans-54"/>
       </defs>
       <use xlink:href="#DejaVuSans-110"/>
       <use x="63.378906" xlink:href="#DejaVuSans-61"/>
       <use x="147.167969" xlink:href="#DejaVuSans-49"/>
       <use x="210.791016" xlink:href="#DejaVuSans-50"/>
       <use x="274.414062" xlink:href="#DejaVuSans-56"/>
       <use x="338.037109" xlink:href="#DejaVuSans-44"/>
       <use x="369.824219" xlink:href="#DejaVuSans-32"/>
       <use x="401.611328" xlink:href="#DejaVuSans-105"/>
       <use x="429.394531" xlink:href="#DejaVuSans-116"/>
       <use x="468.603516" xlink:href="#DejaVuSans-101"/>
       <use x="530.126953" xlink:href="#DejaVuSans-114"/>
       <use x="571.240234" xlink:href="#DejaVuSans-61"/>
       <use x="655.029297" xlink:href="#DejaVuSans-49"/>
       <use x="718.652344" xlink:href="#DejaVuSans-54"/>
      </g>
     </g>
    </g>
    <g id="xtick_4">
     <g id="line2d_4">
      <g>
       <use style="stroke:#000000;stroke-width:0.8;" x="147.491818" xlink:href="#m48291f2224" y="236.05"/>
      </g>
     </g>
     <g id="text_4">
      <!-- n=128, iter=32 -->
      <g transform="translate(150.251193 321.278125)rotate(-90)scale(0.1 -0.1)">
       <defs>
        <path d="M 40.578125 39.3125 
Q 47.65625 37.796875 51.625 33 
Q 55.609375 28.21875 55.609375 21.1875 
Q 55.609375 10.40625 48.1875 4.484375 
Q 40.765625 -1.421875 27.09375 -1.421875 
Q 22.515625 -1.421875 17.65625 -0.515625 
Q 12.796875 0.390625 7.625 2.203125 
L 7.625 11.71875 
Q 11.71875 9.328125 16.59375 8.109375 
Q 21.484375 6.890625 26.8125 6.890625 
Q 36.078125 6.890625 40.9375 10.546875 
Q 45.796875 14.203125 45.796875 21.1875 
Q 45.796875 27.640625 41.28125 31.265625 
Q 36.765625 34.90625 28.71875 34.90625 
L 20.21875 34.90625 
L 20.21875 43.015625 
L 29.109375 43.015625 
Q 36.375 43.015625 40.234375 45.921875 
Q 44.09375 48.828125 44.09375 54.296875 
Q 44.09375 59.90625 40.109375 62.90625 
Q 36.140625 65.921875 28.71875 65.921875 
Q 24.65625 65.921875 20.015625 65.03125 
Q 15.375 64.15625 9.8125 62.3125 
L 9.8125 71.09375 
Q 15.4375 72.65625 20.34375 73.4375 
Q 25.25 74.21875 29.59375 74.21875 
Q 40.828125 74.21875 47.359375 69.109375 
Q 53.90625 64.015625 53.90625 55.328125 
Q 53.90625 49.265625 50.4375 45.09375 
Q 46.96875 40.921875 40.578125 39.3125 
z
" id="DejaVuSans-51"/>
       </defs>
       <use xlink:href="#DejaVuSans-110"/>
       <use x="63.378906" xlink:href="#DejaVuSans-61"/>
       <use x="147.167969" xlink:href="#DejaVuSans-49"/>
       <use x="210.791016" xlink:href="#DejaVuSans-50"/>
       <use x="274.414062" xlink:href="#DejaVuSans-56"/>
       <use x="338.037109" xlink:href="#DejaVuSans-44"/>
       <use x="369.824219" xlink:href="#DejaVuSans-32"/>
       <use x="401.611328" xlink:href="#DejaVuSans-105"/>
       <use x="429.394531" xlink:href="#DejaVuSans-116"/>
       <use x="468.603516" xlink:href="#DejaVuSans-101"/>
       <use x="530.126953" xlink:href="#DejaVuSans-114"/>
       <use x="571.240234" xlink:href="#DejaVuSans-61"/>
       <use x="655.029297" xlink:href="#DejaVuSans-51"/>
       <use x="718.652344" xlink:href="#DejaVuSans-50"/>
      </g>
     </g>
    </g>
    <g id="xtick_5">
     <g id="line2d_5">
      <g>
       <use style="stroke:#000000;stroke-width:0.8;" x="186.025341" xlink:href="#m48291f2224" y="236.05"/>
      </g>
     </g>
     <g id="text_5">
      <!-- n=128, iter=64 -->
      <g transform="translate(188.784716 321.278125)rotate(-90)scale(0.1 -0.1)">
       <use xlink:href="#DejaVuSans-110"/>
       <use x="63.378906" xlink:href="#DejaVuSans-61"/>
       <use x="147.167969" xlink:href="#DejaVuSans-49"/>
       <use x="210.791016" xlink:href="#DejaVuSans-50"/>
       <use x="274.414062" xlink:href="#DejaVuSans-56"/>
       <use x="338.037109" xlink:href="#DejaVuSans-44"/>
       <use x="369.824219" xlink:href="#DejaVuSans-32"/>
       <use x="401.611328" xlink:href="#DejaVuSans-105"/>
       <use x="429.394531" xlink:href="#DejaVuSans-116"/>
       <use x="468.603516" xlink:href="#DejaVuSans-101"/>
       <use x="530.126953" xlink:href="#DejaVuSans-114"/>
       <use x="571.240234" xlink:href="#DejaVuSans-61"/>
       <use x="655.029297" xlink:href="#DejaVuSans-54"/>
       <use x="718.652344" xlink:href="#DejaVuSans-52"/>
      </g>
     </g>
    </g>
    <g id="xtick_6">
     <g id="line2d_6">
      <g>
       <use style="stroke:#000000;stroke-width:0.8;" x="224.558864" xlink:href="#m48291f2224" y="236.05"/>
      </g>
     </g>
     <g id="text_6">
      <!-- n=128, iter=128 -->
      <g transform="translate(227.318239 327.640625)rotate(-90)scale(0.1 -0.1)">
       <use xlink:href="#DejaVuSans-110"/>
       <use x="63.378906" xlink:href="#DejaVuSans-61"/>
       <use x="147.167969" xlink:href="#DejaVuSans-49"/>
       <use x="210.791016" xlink:href="#DejaVuSans-50"/>
       <use x="274.414062" xlink:href="#DejaVuSans-56"/>
       <use x="338.037109" xlink:href="#DejaVuSans-44"/>
       <use x="369.824219" xlink:href="#DejaVuSans-32"/>
       <use x="401.611328" xlink:href="#DejaVuSans-105"/>
       <use x="429.394531" xlink:href="#DejaVuSans-116"/>
       <use x="468.603516" xlink:href="#DejaVuSans-101"/>
       <use x="530.126953" xlink:href="#DejaVuSans-114"/>
       <use x="571.240234" xlink:href="#DejaVuSans-61"/>
       <use x="655.029297" xlink:href="#DejaVuSans-49"/>
       <use x="718.652344" xlink:href="#DejaVuSans-50"/>
       <use x="782.275391" xlink:href="#DejaVuSans-56"/>
      </g>
     </g>
    </g>
    <g id="xtick_7">
     <g id="line2d_7">
      <g>
       <use style="stroke:#000000;stroke-width:0.8;" x="263.092386" xlink:href="#m48291f2224" y="236.05"/>
      </g>
     </g>
     <g id="text_7">
      <!-- n=256, iter=4 -->
      <g transform="translate(265.851761 314.915625)rotate(-90)scale(0.1 -0.1)">
       <defs>
        <path d="M 10.796875 72.90625 
L 49.515625 72.90625 
L 49.515625 64.59375 
L 19.828125 64.59375 
L 19.828125 46.734375 
Q 21.96875 47.46875 24.109375 47.828125 
Q 26.265625 48.1875 28.421875 48.1875 
Q 40.625 48.1875 47.75 41.5 
Q 54.890625 34.8125 54.890625 23.390625 
Q 54.890625 11.625 47.5625 5.09375 
Q 40.234375 -1.421875 26.90625 -1.421875 
Q 22.3125 -1.421875 17.546875 -0.640625 
Q 12.796875 0.140625 7.71875 1.703125 
L 7.71875 11.625 
Q 12.109375 9.234375 16.796875 8.0625 
Q 21.484375 6.890625 26.703125 6.890625 
Q 35.15625 6.890625 40.078125 11.328125 
Q 45.015625 15.765625 45.015625 23.390625 
Q 45.015625 31 40.078125 35.4375 
Q 35.15625 39.890625 26.703125 39.890625 
Q 22.75 39.890625 18.8125 39.015625 
Q 14.890625 38.140625 10.796875 36.28125 
z
" id="DejaVuSans-53"/>
       </defs>
       <use xlink:href="#DejaVuSans-110"/>
       <use x="63.378906" xlink:href="#DejaVuSans-61"/>
       <use x="147.167969" xlink:href="#DejaVuSans-50"/>
       <use x="210.791016" xlink:href="#DejaVuSans-53"/>
       <use x="274.414062" xlink:href="#DejaVuSans-54"/>
       <use x="338.037109" xlink:href="#DejaVuSans-44"/>
       <use x="369.824219" xlink:href="#DejaVuSans-32"/>
       <use x="401.611328" xlink:href="#DejaVuSans-105"/>
       <use x="429.394531" xlink:href="#DejaVuSans-116"/>
       <use x="468.603516" xlink:href="#DejaVuSans-101"/>
       <use x="530.126953" xlink:href="#DejaVuSans-114"/>
       <use x="571.240234" xlink:href="#DejaVuSans-61"/>
       <use x="655.029297" xlink:href="#DejaVuSans-52"/>
      </g>
     </g>
    </g>
    <g id="xtick_8">
     <g id="line2d_8">
      <g>
       <use style="stroke:#000000;stroke-width:0.8;" x="301.625909" xlink:href="#m48291f2224" y="236.05"/>
      </g>
     </g>
     <g id="text_8">
      <!-- n=256, iter=8 -->
      <g transform="translate(304.385284 314.915625)rotate(-90)scale(0.1 -0.1)">
       <use xlink:href="#DejaVuSans-110"/>
       <use x="63.378906" xlink:href="#DejaVuSans-61"/>
       <use x="147.167969" xlink:href="#DejaVuSans-50"/>
       <use x="210.791016" xlink:href="#DejaVuSans-53"/>
       <use x="274.414062" xlink:href="#DejaVuSans-54"/>
       <use x="338.037109" xlink:href="#DejaVuSans-44"/>
       <use x="369.824219" xlink:href="#DejaVuSans-32"/>
       <use x="401.611328" xlink:href="#DejaVuSans-105"/>
       <use x="429.394531" xlink:href="#DejaVuSans-116"/>
       <use x="468.603516" xlink:href="#DejaVuSans-101"/>
       <use x="530.126953" xlink:href="#DejaVuSans-114"/>
       <use x="571.240234" xlink:href="#DejaVuSans-61"/>
       <use x="655.029297" xlink:href="#DejaVuSans-56"/>
      </g>
     </g>
    </g>
    <g id="xtick_9">
     <g id="line2d_9">
      <g>
       <use style="stroke:#000000;stroke-width:0.8;" x="340.159432" xlink:href="#m48291f2224" y="236.05"/>
      </g>
     </g>
     <g id="text_9">
      <!-- n=256, iter=16 -->
      <g transform="translate(342.918807 321.278125)rotate(-90)scale(0.1 -0.1)">
       <use xlink:href="#DejaVuSans-110"/>
       <use x="63.378906" xlink:href="#DejaVuSans-61"/>
       <use x="147.167969" xlink:href="#DejaVuSans-50"/>
       <use x="210.791016" xlink:href="#DejaVuSans-53"/>
       <use x="274.414062" xlink:href="#DejaVuSans-54"/>
       <use x="338.037109" xlink:href="#DejaVuSans-44"/>
       <use x="369.824219" xlink:href="#DejaVuSans-32"/>
       <use x="401.611328" xlink:href="#DejaVuSans-105"/>
       <use x="429.394531" xlink:href="#DejaVuSans-116"/>
       <use x="468.603516" xlink:href="#DejaVuSans-101"/>
       <use x="530.126953" xlink:href="#DejaVuSans-114"/>
       <use x="571.240234" xlink:href="#DejaVuSans-61"/>
       <use x="655.029297" xlink:href="#DejaVuSans-49"/>
       <use x="718.652344" xlink:href="#DejaVuSans-54"/>
      </g>
     </g>
    </g>
    <g id="xtick_10">
     <g id="line2d_10">
      <g>
       <use style="stroke:#000000;stroke-width:0.8;" x="378.692955" xlink:href="#m48291f2224" y="236.05"/>
      </g>
     </g>
     <g id="text_10">
      <!-- n=256, iter=32 -->
      <g transform="translate(381.45233 321.278125)rotate(-90)scale(0.1 -0.1)">
       <use xlink:href="#DejaVuSans-110"/>
       <use x="63.378906" xlink:href="#DejaVuSans-61"/>
       <use x="147.167969" xlink:href="#DejaVuSans-50"/>
       <use x="210.791016" xlink:href="#DejaVuSans-53"/>
       <use x="274.414062" xlink:href="#DejaVuSans-54"/>
       <use x="338.037109" xlink:href="#DejaVuSans-44"/>
       <use x="369.824219" xlink:href="#DejaVuSans-32"/>
       <use x="401.611328" xlink:href="#DejaVuSans-105"/>
       <use x="429.394531" xlink:href="#DejaVuSans-116"/>
       <use x="468.603516" xlink:href="#DejaVuSans-101"/>
       <use x="530.126953" xlink:href="#DejaVuSans-114"/>
       <use x="571.240234" xlink:href="#DejaVuSans-61"/>
       <use x="655.029297" xlink:href="#DejaVuSans-51"/>
       <use x="718.652344" xlink:href="#DejaVuSans-50"/>
      </g>
     </g>
    </g>
    <g id="xtick_11">
     <g id="line2d_11">
      <g>
       <use style="stroke:#000000;stroke-width:0.8;" x="417.226477" xlink:href="#m48291f2224" y="236.05"/>
      </g>
     </g>
     <g id="text_11">
      <!-- n=256, iter=64 -->
      <g transform="translate(419.985852 321.278125)rotate(-90)scale(0.1 -0.1)">
       <use xlink:href="#DejaVuSans-110"/>
       <use x="63.378906" xlink:href="#DejaVuSans-61"/>
       <use x="147.167969" xlink:href="#DejaVuSans-50"/>
       <use x="210.791016" xlink:href="#DejaVuSans-53"/>
       <use x="274.414062" xlink:href="#DejaVuSans-54"/>
       <use x="338.037109" xlink:href="#DejaVuSans-44"/>
       <use x="369.824219" xlink:href="#DejaVuSans-32"/>
       <use x="401.611328" xlink:href="#DejaVuSans-105"/>
       <use x="429.394531" xlink:href="#DejaVuSans-116"/>
       <use x="468.603516" xlink:href="#DejaVuSans-101"/>
       <use x="530.126953" xlink:href="#DejaVuSans-114"/>
       <use x="571.240234" xlink:href="#DejaVuSans-61"/>
       <use x="655.029297" xlink:href="#DejaVuSans-54"/>
       <use x="718.652344" xlink:href="#DejaVuSans-52"/>
      </g>
     </g>
    </g>
    <g id="xtick_12">
     <g id="line2d_12">
      <g>
       <use style="stroke:#000000;stroke-width:0.8;" x="455.76" xlink:href="#m48291f2224" y="236.05"/>
      </g>
     </g>
     <g id="text_12">
      <!-- n=256, iter=128 -->
      <g transform="translate(458.519375 327.640625)rotate(-90)scale(0.1 -0.1)">
       <use xlink:href="#DejaVuSans-110"/>
       <use x="63.378906" xlink:href="#DejaVuSans-61"/>
       <use x="147.167969" xlink:href="#DejaVuSans-50"/>
       <use x="210.791016" xlink:href="#DejaVuSans-53"/>
       <use x="274.414062" xlink:href="#DejaVuSans-54"/>
       <use x="338.037109" xlink:href="#DejaVuSans-44"/>
       <use x="369.824219" xlink:href="#DejaVuSans-32"/>
       <use x="401.611328" xlink:href="#DejaVuSans-105"/>
       <use x="429.394531" xlink:href="#DejaVuSans-116"/>
       <use x="468.603516" xlink:href="#DejaVuSans-101"/>
       <use x="530.126953" xlink:href="#DejaVuSans-114"/>
       <use x="571.240234" xlink:href="#DejaVuSans-61"/>
       <use x="655.029297" xlink:href="#DejaVuSans-49"/>
       <use x="718.652344" xlink:href="#DejaVuSans-50"/>
       <use x="782.275391" xlink:href="#DejaVuSans-56"/>
      </g>
     </g>
    </g>
    <g id="text_13">
     <!-- Spec -->
     <g transform="translate(226.781719 342.278437)scale(0.14 -0.14)">
      <defs>
       <path d="M 53.515625 70.515625 
L 53.515625 60.890625 
Q 47.90625 63.578125 42.921875 64.890625 
Q 37.9375 66.21875 33.296875 66.21875 
Q 25.25 66.21875 20.875 63.09375 
Q 16.5 59.96875 16.5 54.203125 
Q 16.5 49.359375 19.40625 46.890625 
Q 22.3125 44.4375 30.421875 42.921875 
L 36.375 41.703125 
Q 47.40625 39.59375 52.65625 34.296875 
Q 57.90625 29 57.90625 20.125 
Q 57.90625 9.515625 50.796875 4.046875 
Q 43.703125 -1.421875 29.984375 -1.421875 
Q 24.8125 -1.421875 18.96875 -0.25 
Q 13.140625 0.921875 6.890625 3.21875 
L 6.890625 13.375 
Q 12.890625 10.015625 18.65625 8.296875 
Q 24.421875 6.59375 29.984375 6.59375 
Q 38.421875 6.59375 43.015625 9.90625 
Q 47.609375 13.234375 47.609375 19.390625 
Q 47.609375 24.75 44.3125 27.78125 
Q 41.015625 30.8125 33.5 32.328125 
L 27.484375 33.5 
Q 16.453125 35.6875 11.515625 40.375 
Q 6.59375 45.0625 6.59375 53.421875 
Q 6.59375 63.09375 13.40625 68.65625 
Q 20.21875 74.21875 32.171875 74.21875 
Q 37.3125 74.21875 42.625 73.28125 
Q 47.953125 72.359375 53.515625 70.515625 
z
" id="DejaVuSans-83"/>
       <path d="M 18.109375 8.203125 
L 18.109375 -20.796875 
L 9.078125 -20.796875 
L 9.078125 54.6875 
L 18.109375 54.6875 
L 18.109375 46.390625 
Q 20.953125 51.265625 25.265625 53.625 
Q 29.59375 56 35.59375 56 
Q 45.5625 56 51.78125 48.09375 
Q 58.015625 40.1875 58.015625 27.296875 
Q 58.015625 14.40625 51.78125 6.484375 
Q 45.5625 -1.421875 35.59375 -1.421875 
Q 29.59375 -1.421875 25.265625 0.953125 
Q 20.953125 3.328125 18.109375 8.203125 
z
M 48.6875 27.296875 
Q 48.6875 37.203125 44.609375 42.84375 
Q 40.53125 48.484375 33.40625 48.484375 
Q 26.265625 48.484375 22.1875 42.84375 
Q 18.109375 37.203125 18.109375 27.296875 
Q 18.109375 17.390625 22.1875 11.75 
Q 26.265625 6.109375 33.40625 6.109375 
Q 40.53125 6.109375 44.609375 11.75 
Q 48.6875 17.390625 48.6875 27.296875 
z
" id="DejaVuSans-112"/>
       <path d="M 48.78125 52.59375 
L 48.78125 44.1875 
Q 44.96875 46.296875 41.140625 47.34375 
Q 37.3125 48.390625 33.40625 48.390625 
Q 24.65625 48.390625 19.8125 42.84375 
Q 14.984375 37.3125 14.984375 27.296875 
Q 14.984375 17.28125 19.8125 11.734375 
Q 24.65625 6.203125 33.40625 6.203125 
Q 37.3125 6.203125 41.140625 7.25 
Q 44.96875 8.296875 48.78125 10.40625 
L 48.78125 2.09375 
Q 45.015625 0.34375 40.984375 -0.53125 
Q 36.96875 -1.421875 32.421875 -1.421875 
Q 20.0625 -1.421875 12.78125 6.34375 
Q 5.515625 14.109375 5.515625 27.296875 
Q 5.515625 40.671875 12.859375 48.328125 
Q 20.21875 56 33.015625 56 
Q 37.15625 56 41.109375 55.140625 
Q 45.0625 54.296875 48.78125 52.59375 
z
" id="DejaVuSans-99"/>
      </defs>
      <use xlink:href="#DejaVuSans-83"/>
      <use x="63.476562" xlink:href="#DejaVuSans-112"/>
      <use x="126.953125" xlink:href="#DejaVuSans-101"/>
      <use x="188.476562" xlink:href="#DejaVuSans-99"/>
     </g>
    </g>
   </g>
   <g id="matplotlib.axis_2">
    <g id="ytick_1">
     <g id="line2d_13">
      <defs>
       <path d="M 0 0 
L -3.5 0 
" id="m73327af8d2" style="stroke:#000000;stroke-width:0.8;"/>
      </defs>
      <g>
       <use style="stroke:#000000;stroke-width:0.8;" x="31.89125" xlink:href="#m73327af8d2" y="227.180826"/>
      </g>
     </g>
     <g id="text_14">
      <!-- $\mathdefault{0}$ -->
      <g transform="translate(18.49125 230.980045)scale(0.1 -0.1)">
       <defs>
        <path d="M 31.78125 66.40625 
Q 24.171875 66.40625 20.328125 58.90625 
Q 16.5 51.421875 16.5 36.375 
Q 16.5 21.390625 20.328125 13.890625 
Q 24.171875 6.390625 31.78125 6.390625 
Q 39.453125 6.390625 43.28125 13.890625 
Q 47.125 21.390625 47.125 36.375 
Q 47.125 51.421875 43.28125 58.90625 
Q 39.453125 66.40625 31.78125 66.40625 
z
M 31.78125 74.21875 
Q 44.046875 74.21875 50.515625 64.515625 
Q 56.984375 54.828125 56.984375 36.375 
Q 56.984375 17.96875 50.515625 8.265625 
Q 44.046875 -1.421875 31.78125 -1.421875 
Q 19.53125 -1.421875 13.0625 8.265625 
Q 6.59375 17.96875 6.59375 36.375 
Q 6.59375 54.828125 13.0625 64.515625 
Q 19.53125 74.21875 31.78125 74.21875 
z
" id="DejaVuSans-48"/>
       </defs>
       <use transform="translate(0 0.78125)" xlink:href="#DejaVuSans-48"/>
      </g>
     </g>
    </g>
    <g id="ytick_2">
     <g id="line2d_14">
      <g>
       <use style="stroke:#000000;stroke-width:0.8;" x="31.89125" xlink:href="#m73327af8d2" y="189.471111"/>
      </g>
     </g>
     <g id="text_15">
      <!-- $\mathdefault{1}$ -->
      <g transform="translate(18.49125 193.27033)scale(0.1 -0.1)">
       <use transform="translate(0 0.09375)" xlink:href="#DejaVuSans-49"/>
      </g>
     </g>
    </g>
    <g id="ytick_3">
     <g id="line2d_15">
      <g>
       <use style="stroke:#000000;stroke-width:0.8;" x="31.89125" xlink:href="#m73327af8d2" y="151.761397"/>
      </g>
     </g>
     <g id="text_16">
      <!-- $\mathdefault{2}$ -->
      <g transform="translate(18.49125 155.560616)scale(0.1 -0.1)">
       <use transform="translate(0 0.78125)" xlink:href="#DejaVuSans-50"/>
      </g>
     </g>
    </g>
    <g id="ytick_4">
     <g id="line2d_16">
      <g>
       <use style="stroke:#000000;stroke-width:0.8;" x="31.89125" xlink:href="#m73327af8d2" y="114.051682"/>
      </g>
     </g>
     <g id="text_17">
      <!-- $\mathdefault{3}$ -->
      <g transform="translate(18.49125 117.850901)scale(0.1 -0.1)">
       <use transform="translate(0 0.78125)" xlink:href="#DejaVuSans-51"/>
      </g>
     </g>
    </g>
    <g id="ytick_5">
     <g id="line2d_17">
      <g>
       <use style="stroke:#000000;stroke-width:0.8;" x="31.89125" xlink:href="#m73327af8d2" y="76.341968"/>
      </g>
     </g>
     <g id="text_18">
      <!-- $\mathdefault{4}$ -->
      <g transform="translate(18.49125 80.141186)scale(0.1 -0.1)">
       <use transform="translate(0 0.09375)" xlink:href="#DejaVuSans-52"/>
      </g>
     </g>
    </g>
    <g id="ytick_6">
     <g id="line2d_18">
      <g>
       <use style="stroke:#000000;stroke-width:0.8;" x="31.89125" xlink:href="#m73327af8d2" y="38.632253"/>
      </g>
     </g>
     <g id="text_19">
      <!-- $\mathdefault{5}$ -->
      <g transform="translate(18.49125 42.431472)scale(0.1 -0.1)">
       <use transform="translate(0 0.09375)" xlink:href="#DejaVuSans-53"/>
      </g>
     </g>
    </g>
    <g id="text_20">
     <!-- Mean Time (ms, lower is better) -->
     <g transform="translate(11.579688 239.133125)rotate(-90)scale(0.14 -0.14)">
      <defs>
       <path d="M 9.8125 72.90625 
L 24.515625 72.90625 
L 43.109375 23.296875 
L 61.8125 72.90625 
L 76.515625 72.90625 
L 76.515625 0 
L 66.890625 0 
L 66.890625 64.015625 
L 48.09375 14.015625 
L 38.1875 14.015625 
L 19.390625 64.015625 
L 19.390625 0 
L 9.8125 0 
z
" id="DejaVuSans-77"/>
       <path d="M 34.28125 27.484375 
Q 23.390625 27.484375 19.1875 25 
Q 14.984375 22.515625 14.984375 16.5 
Q 14.984375 11.71875 18.140625 8.90625 
Q 21.296875 6.109375 26.703125 6.109375 
Q 34.1875 6.109375 38.703125 11.40625 
Q 43.21875 16.703125 43.21875 25.484375 
L 43.21875 27.484375 
z
M 52.203125 31.203125 
L 52.203125 0 
L 43.21875 0 
L 43.21875 8.296875 
Q 40.140625 3.328125 35.546875 0.953125 
Q 30.953125 -1.421875 24.3125 -1.421875 
Q 15.921875 -1.421875 10.953125 3.296875 
Q 6 8.015625 6 15.921875 
Q 6 25.140625 12.171875 29.828125 
Q 18.359375 34.515625 30.609375 34.515625 
L 43.21875 34.515625 
L 43.21875 35.40625 
Q 43.21875 41.609375 39.140625 45 
Q 35.0625 48.390625 27.6875 48.390625 
Q 23 48.390625 18.546875 47.265625 
Q 14.109375 46.140625 10.015625 43.890625 
L 10.015625 52.203125 
Q 14.9375 54.109375 19.578125 55.046875 
Q 24.21875 56 28.609375 56 
Q 40.484375 56 46.34375 49.84375 
Q 52.203125 43.703125 52.203125 31.203125 
z
" id="DejaVuSans-97"/>
       <path d="M -0.296875 72.90625 
L 61.375 72.90625 
L 61.375 64.59375 
L 35.5 64.59375 
L 35.5 0 
L 25.59375 0 
L 25.59375 64.59375 
L -0.296875 64.59375 
z
" id="DejaVuSans-84"/>
       <path d="M 52 44.1875 
Q 55.375 50.25 60.0625 53.125 
Q 64.75 56 71.09375 56 
Q 79.640625 56 84.28125 50.015625 
Q 88.921875 44.046875 88.921875 33.015625 
L 88.921875 0 
L 79.890625 0 
L 79.890625 32.71875 
Q 79.890625 40.578125 77.09375 44.375 
Q 74.3125 48.1875 68.609375 48.1875 
Q 61.625 48.1875 57.5625 43.546875 
Q 53.515625 38.921875 53.515625 30.90625 
L 53.515625 0 
L 44.484375 0 
L 44.484375 32.71875 
Q 44.484375 40.625 41.703125 44.40625 
Q 38.921875 48.1875 33.109375 48.1875 
Q 26.21875 48.1875 22.15625 43.53125 
Q 18.109375 38.875 18.109375 30.90625 
L 18.109375 0 
L 9.078125 0 
L 9.078125 54.6875 
L 18.109375 54.6875 
L 18.109375 46.1875 
Q 21.1875 51.21875 25.484375 53.609375 
Q 29.78125 56 35.6875 56 
Q 41.65625 56 45.828125 52.96875 
Q 50 49.953125 52 44.1875 
z
" id="DejaVuSans-109"/>
       <path d="M 31 75.875 
Q 24.46875 64.65625 21.28125 53.65625 
Q 18.109375 42.671875 18.109375 31.390625 
Q 18.109375 20.125 21.3125 9.0625 
Q 24.515625 -2 31 -13.1875 
L 23.1875 -13.1875 
Q 15.875 -1.703125 12.234375 9.375 
Q 8.59375 20.453125 8.59375 31.390625 
Q 8.59375 42.28125 12.203125 53.3125 
Q 15.828125 64.359375 23.1875 75.875 
z
" id="DejaVuSans-40"/>
       <path d="M 44.28125 53.078125 
L 44.28125 44.578125 
Q 40.484375 46.53125 36.375 47.5 
Q 32.28125 48.484375 27.875 48.484375 
Q 21.1875 48.484375 17.84375 46.4375 
Q 14.5 44.390625 14.5 40.28125 
Q 14.5 37.15625 16.890625 35.375 
Q 19.28125 33.59375 26.515625 31.984375 
L 29.59375 31.296875 
Q 39.15625 29.25 43.1875 25.515625 
Q 47.21875 21.78125 47.21875 15.09375 
Q 47.21875 7.46875 41.1875 3.015625 
Q 35.15625 -1.421875 24.609375 -1.421875 
Q 20.21875 -1.421875 15.453125 -0.5625 
Q 10.6875 0.296875 5.421875 2 
L 5.421875 11.28125 
Q 10.40625 8.6875 15.234375 7.390625 
Q 20.0625 6.109375 24.8125 6.109375 
Q 31.15625 6.109375 34.5625 8.28125 
Q 37.984375 10.453125 37.984375 14.40625 
Q 37.984375 18.0625 35.515625 20.015625 
Q 33.0625 21.96875 24.703125 23.78125 
L 21.578125 24.515625 
Q 13.234375 26.265625 9.515625 29.90625 
Q 5.8125 33.546875 5.8125 39.890625 
Q 5.8125 47.609375 11.28125 51.796875 
Q 16.75 56 26.8125 56 
Q 31.78125 56 36.171875 55.265625 
Q 40.578125 54.546875 44.28125 53.078125 
z
" id="DejaVuSans-115"/>
       <path d="M 9.421875 75.984375 
L 18.40625 75.984375 
L 18.40625 0 
L 9.421875 0 
z
" id="DejaVuSans-108"/>
       <path d="M 30.609375 48.390625 
Q 23.390625 48.390625 19.1875 42.75 
Q 14.984375 37.109375 14.984375 27.296875 
Q 14.984375 17.484375 19.15625 11.84375 
Q 23.34375 6.203125 30.609375 6.203125 
Q 37.796875 6.203125 41.984375 11.859375 
Q 46.1875 17.53125 46.1875 27.296875 
Q 46.1875 37.015625 41.984375 42.703125 
Q 37.796875 48.390625 30.609375 48.390625 
z
M 30.609375 56 
Q 42.328125 56 49.015625 48.375 
Q 55.71875 40.765625 55.71875 27.296875 
Q 55.71875 13.875 49.015625 6.21875 
Q 42.328125 -1.421875 30.609375 -1.421875 
Q 18.84375 -1.421875 12.171875 6.21875 
Q 5.515625 13.875 5.515625 27.296875 
Q 5.515625 40.765625 12.171875 48.375 
Q 18.84375 56 30.609375 56 
z
" id="DejaVuSans-111"/>
       <path d="M 4.203125 54.6875 
L 13.1875 54.6875 
L 24.421875 12.015625 
L 35.59375 54.6875 
L 46.1875 54.6875 
L 57.421875 12.015625 
L 68.609375 54.6875 
L 77.59375 54.6875 
L 63.28125 0 
L 52.6875 0 
L 40.921875 44.828125 
L 29.109375 0 
L 18.5 0 
z
" id="DejaVuSans-119"/>
       <path d="M 48.6875 27.296875 
Q 48.6875 37.203125 44.609375 42.84375 
Q 40.53125 48.484375 33.40625 48.484375 
Q 26.265625 48.484375 22.1875 42.84375 
Q 18.109375 37.203125 18.109375 27.296875 
Q 18.109375 17.390625 22.1875 11.75 
Q 26.265625 6.109375 33.40625 6.109375 
Q 40.53125 6.109375 44.609375 11.75 
Q 48.6875 17.390625 48.6875 27.296875 
z
M 18.109375 46.390625 
Q 20.953125 51.265625 25.265625 53.625 
Q 29.59375 56 35.59375 56 
Q 45.5625 56 51.78125 48.09375 
Q 58.015625 40.1875 58.015625 27.296875 
Q 58.015625 14.40625 51.78125 6.484375 
Q 45.5625 -1.421875 35.59375 -1.421875 
Q 29.59375 -1.421875 25.265625 0.953125 
Q 20.953125 3.328125 18.109375 8.203125 
L 18.109375 0 
L 9.078125 0 
L 9.078125 75.984375 
L 18.109375 75.984375 
z
" id="DejaVuSans-98"/>
       <path d="M 8.015625 75.875 
L 15.828125 75.875 
Q 23.140625 64.359375 26.78125 53.3125 
Q 30.421875 42.28125 30.421875 31.390625 
Q 30.421875 20.453125 26.78125 9.375 
Q 23.140625 -1.703125 15.828125 -13.1875 
L 8.015625 -13.1875 
Q 14.5 -2 17.703125 9.0625 
Q 20.90625 20.125 20.90625 31.390625 
Q 20.90625 42.671875 17.703125 53.65625 
Q 14.5 64.65625 8.015625 75.875 
z
" id="DejaVuSans-41"/>
      </defs>
      <use xlink:href="#DejaVuSans-77"/>
      <use x="86.279297" xlink:href="#DejaVuSans-101"/>
      <use x="147.802734" xlink:href="#DejaVuSans-97"/>
      <use x="209.082031" xlink:href="#DejaVuSans-110"/>
      <use x="272.460938" xlink:href="#DejaVuSans-32"/>
      <use x="304.248047" xlink:href="#DejaVuSans-84"/>
      <use x="362.207031" xlink:href="#DejaVuSans-105"/>
      <use x="389.990234" xlink:href="#DejaVuSans-109"/>
      <use x="487.402344" xlink:href="#DejaVuSans-101"/>
      <use x="548.925781" xlink:href="#DejaVuSans-32"/>
      <use x="580.712891" xlink:href="#DejaVuSans-40"/>
      <use x="619.726562" xlink:href="#DejaVuSans-109"/>
      <use x="717.138672" xlink:href="#DejaVuSans-115"/>
      <use x="769.238281" xlink:href="#DejaVuSans-44"/>
      <use x="801.025391" xlink:href="#DejaVuSans-32"/>
      <use x="832.8125" xlink:href="#DejaVuSans-108"/>
      <use x="860.595703" xlink:href="#DejaVuSans-111"/>
      <use x="921.777344" xlink:href="#DejaVuSans-119"/>
      <use x="1003.564453" xlink:href="#DejaVuSans-101"/>
      <use x="1065.087891" xlink:href="#DejaVuSans-114"/>
      <use x="1106.201172" xlink:href="#DejaVuSans-32"/>
      <use x="1137.988281" xlink:href="#DejaVuSans-105"/>
      <use x="1165.771484" xlink:href="#DejaVuSans-115"/>
      <use x="1217.871094" xlink:href="#DejaVuSans-32"/>
      <use x="1249.658203" xlink:href="#DejaVuSans-98"/>
      <use x="1313.134766" xlink:href="#DejaVuSans-101"/>
      <use x="1374.658203" xlink:href="#DejaVuSans-116"/>
      <use x="1413.867188" xlink:href="#DejaVuSans-116"/>
      <use x="1453.076172" xlink:href="#DejaVuSans-101"/>
      <use x="1514.599609" xlink:href="#DejaVuSans-114"/>
      <use x="1555.712891" xlink:href="#DejaVuSans-41"/>
     </g>
    </g>
    <g id="text_21">
     <!-- $\times\mathdefault{10^{4}}\mathdefault{}$ -->
     <g transform="translate(31.89125 15.96)scale(0.1 -0.1)">
      <defs>
       <path d="M 70.125 53.71875 
L 47.796875 31.296875 
L 70.125 8.984375 
L 64.3125 3.078125 
L 41.890625 25.484375 
L 19.484375 3.078125 
L 13.71875 8.984375 
L 35.984375 31.296875 
L 13.71875 53.71875 
L 19.484375 59.625 
L 41.890625 37.203125 
L 64.3125 59.625 
z
" id="DejaVuSans-215"/>
      </defs>
      <use transform="translate(0 0.684375)" xlink:href="#DejaVuSans-215"/>
      <use transform="translate(83.789062 0.684375)" xlink:href="#DejaVuSans-49"/>
      <use transform="translate(147.412109 0.684375)" xlink:href="#DejaVuSans-48"/>
      <use transform="translate(211.992188 38.965625)scale(0.7)" xlink:href="#DejaVuSans-52"/>
     </g>
    </g>
   </g>
   <g id="line2d_19">
    <path d="M 31.89125 222.527447 
L 70.424773 221.422553 
L 108.958295 216.286489 
L 147.491818 206.942022 
L 186.025341 186.529754 
L 224.558864 148.6692 
L 263.092386 218.224769 
L 301.625909 211.889537 
L 340.159432 198.909853 
L 378.692955 174.877452 
L 417.226477 124.836661 
L 455.76 30.260696 
" style="fill:none;stroke:#1f77b4;stroke-linecap:square;stroke-opacity:0.7;stroke-width:1.5;"/>
    <defs>
     <path d="M 0 3 
C 0.795609 3 1.55874 2.683901 2.12132 2.12132 
C 2.683901 1.55874 3 0.795609 3 0 
C 3 -0.795609 2.683901 -1.55874 2.12132 -2.12132 
C 1.55874 -2.683901 0.795609 -3 0 -3 
C -0.795609 -3 -1.55874 -2.683901 -2.12132 -2.12132 
C -2.683901 -1.55874 -3 -0.795609 -3 0 
C -3 0.795609 -2.683901 1.55874 -2.12132 2.12132 
C -1.55874 2.683901 -0.795609 3 0 3 
z
" id="m253f179bcc" style="stroke:#1f77b4;stroke-opacity:0.7;"/>
    </defs>
    <g>
     <use style="fill:#1f77b4;fill-opacity:0.7;stroke:#1f77b4;stroke-opacity:0.7;" x="31.89125" xlink:href="#m253f179bcc" y="222.527447"/>
     <use style="fill:#1f77b4;fill-opacity:0.7;stroke:#1f77b4;stroke-opacity:0.7;" x="70.424773" xlink:href="#m253f179bcc" y="221.422553"/>
     <use style="fill:#1f77b4;fill-opacity:0.7;stroke:#1f77b4;stroke-opacity:0.7;" x="108.958295" xlink:href="#m253f179bcc" y="216.286489"/>
     <use style="fill:#1f77b4;fill-opacity:0.7;stroke:#1f77b4;stroke-opacity:0.7;" x="147.491818" xlink:href="#m253f179bcc" y="206.942022"/>
     <use style="fill:#1f77b4;fill-opacity:0.7;stroke:#1f77b4;stroke-opacity:0.7;" x="186.025341" xlink:href="#m253f179bcc" y="186.529754"/>
     <use style="fill:#1f77b4;fill-opacity:0.7;stroke:#1f77b4;stroke-opacity:0.7;" x="224.558864" xlink:href="#m253f179bcc" y="148.6692"/>
     <use style="fill:#1f77b4;fill-opacity:0.7;stroke:#1f77b4;stroke-opacity:0.7;" x="263.092386" xlink:href="#m253f179bcc" y="218.224769"/>
     <use style="fill:#1f77b4;fill-opacity:0.7;stroke:#1f77b4;stroke-opacity:0.7;" x="301.625909" xlink:href="#m253f179bcc" y="211.889537"/>
     <use style="fill:#1f77b4;fill-opacity:0.7;stroke:#1f77b4;stroke-opacity:0.7;" x="340.159432" xlink:href="#m253f179bcc" y="198.909853"/>
     <use style="fill:#1f77b4;fill-opacity:0.7;stroke:#1f77b4;stroke-opacity:0.7;" x="378.692955" xlink:href="#m253f179bcc" y="174.877452"/>
     <use style="fill:#1f77b4;fill-opacity:0.7;stroke:#1f77b4;stroke-opacity:0.7;" x="417.226477" xlink:href="#m253f179bcc" y="124.836661"/>
     <use style="fill:#1f77b4;fill-opacity:0.7;stroke:#1f77b4;stroke-opacity:0.7;" x="455.76" xlink:href="#m253f179bcc" y="30.260696"/>
    </g>
   </g>
   <g id="line2d_20">
    <path d="M 31.89125 225.732396 
L 70.424773 224.784374 
L 108.958295 222.587783 
L 147.491818 218.062617 
L 186.025341 209.136728 
L 224.558864 190.930477 
L 263.092386 224.268882 
L 301.625909 221.332049 
L 340.159432 215.441792 
L 378.692955 204.011977 
L 417.226477 181.401232 
L 455.76 140.335353 
" style="fill:none;stroke:#ff7f0e;stroke-linecap:square;stroke-opacity:0.7;stroke-width:1.5;"/>
    <defs>
     <path d="M 0 3 
C 0.795609 3 1.55874 2.683901 2.12132 2.12132 
C 2.683901 1.55874 3 0.795609 3 0 
C 3 -0.795609 2.683901 -1.55874 2.12132 -2.12132 
C 1.55874 -2.683901 0.795609 -3 0 -3 
C -0.795609 -3 -1.55874 -2.683901 -2.12132 -2.12132 
C -2.683901 -1.55874 -3 -0.795609 -3 0 
C -3 0.795609 -2.683901 1.55874 -2.12132 2.12132 
C -1.55874 2.683901 -0.795609 3 0 3 
z
" id="m378f1f4efc" style="stroke:#ff7f0e;stroke-opacity:0.7;"/>
    </defs>
    <g>
     <use style="fill:#ff7f0e;fill-opacity:0.7;stroke:#ff7f0e;stroke-opacity:0.7;" x="31.89125" xlink:href="#m378f1f4efc" y="225.732396"/>
     <use style="fill:#ff7f0e;fill-opacity:0.7;stroke:#ff7f0e;stroke-opacity:0.7;" x="70.424773" xlink:href="#m378f1f4efc" y="224.784374"/>
     <use style="fill:#ff7f0e;fill-opacity:0.7;stroke:#ff7f0e;stroke-opacity:0.7;" x="108.958295" xlink:href="#m378f1f4efc" y="222.587783"/>
     <use style="fill:#ff7f0e;fill-opacity:0.7;stroke:#ff7f0e;stroke-opacity:0.7;" x="147.491818" xlink:href="#m378f1f4efc" y="218.062617"/>
     <use style="fill:#ff7f0e;fill-opacity:0.7;stroke:#ff7f0e;stroke-opacity:0.7;" x="186.025341" xlink:href="#m378f1f4efc" y="209.136728"/>
     <use style="fill:#ff7f0e;fill-opacity:0.7;stroke:#ff7f0e;stroke-opacity:0.7;" x="224.558864" xlink:href="#m378f1f4efc" y="190.930477"/>
     <use style="fill:#ff7f0e;fill-opacity:0.7;stroke:#ff7f0e;stroke-opacity:0.7;" x="263.092386" xlink:href="#m378f1f4efc" y="224.268882"/>
     <use style="fill:#ff7f0e;fill-opacity:0.7;stroke:#ff7f0e;stroke-opacity:0.7;" x="301.625909" xlink:href="#m378f1f4efc" y="221.332049"/>
     <use style="fill:#ff7f0e;fill-opacity:0.7;stroke:#ff7f0e;stroke-opacity:0.7;" x="340.159432" xlink:href="#m378f1f4efc" y="215.441792"/>
     <use style="fill:#ff7f0e;fill-opacity:0.7;stroke:#ff7f0e;stroke-opacity:0.7;" x="378.692955" xlink:href="#m378f1f4efc" y="204.011977"/>
     <use style="fill:#ff7f0e;fill-opacity:0.7;stroke:#ff7f0e;stroke-opacity:0.7;" x="417.226477" xlink:href="#m378f1f4efc" y="181.401232"/>
     <use style="fill:#ff7f0e;fill-opacity:0.7;stroke:#ff7f0e;stroke-opacity:0.7;" x="455.76" xlink:href="#m378f1f4efc" y="140.335353"/>
    </g>
   </g>
   <g id="line2d_21">
    <path d="M 31.89125 225.182588 
L 70.424773 223.500358 
L 108.958295 219.948103 
L 147.491818 212.375992 
L 186.025341 197.974652 
L 224.558864 168.843898 
L 263.092386 221.234004 
L 301.625909 215.988583 
L 340.159432 205.467572 
L 378.692955 183.852364 
L 417.226477 141.692903 
L 455.76 57.56253 
" style="fill:none;stroke:#2ca02c;stroke-linecap:square;stroke-opacity:0.7;stroke-width:1.5;"/>
    <defs>
     <path d="M -3 3 
L 3 3 
L 3 -3 
L -3 -3 
z
" id="m54294937d3" style="stroke:#2ca02c;stroke-linejoin:miter;stroke-opacity:0.7;"/>
    </defs>
    <g>
     <use style="fill:#2ca02c;fill-opacity:0.7;stroke:#2ca02c;stroke-linejoin:miter;stroke-opacity:0.7;" x="31.89125" xlink:href="#m54294937d3" y="225.182588"/>
     <use style="fill:#2ca02c;fill-opacity:0.7;stroke:#2ca02c;stroke-linejoin:miter;stroke-opacity:0.7;" x="70.424773" xlink:href="#m54294937d3" y="223.500358"/>
     <use style="fill:#2ca02c;fill-opacity:0.7;stroke:#2ca02c;stroke-linejoin:miter;stroke-opacity:0.7;" x="108.958295" xlink:href="#m54294937d3" y="219.948103"/>
     <use style="fill:#2ca02c;fill-opacity:0.7;stroke:#2ca02c;stroke-linejoin:miter;stroke-opacity:0.7;" x="147.491818" xlink:href="#m54294937d3" y="212.375992"/>
     <use style="fill:#2ca02c;fill-opacity:0.7;stroke:#2ca02c;stroke-linejoin:miter;stroke-opacity:0.7;" x="186.025341" xlink:href="#m54294937d3" y="197.974652"/>
     <use style="fill:#2ca02c;fill-opacity:0.7;stroke:#2ca02c;stroke-linejoin:miter;stroke-opacity:0.7;" x="224.558864" xlink:href="#m54294937d3" y="168.843898"/>
     <use style="fill:#2ca02c;fill-opacity:0.7;stroke:#2ca02c;stroke-linejoin:miter;stroke-opacity:0.7;" x="263.092386" xlink:href="#m54294937d3" y="221.234004"/>
     <use style="fill:#2ca02c;fill-opacity:0.7;stroke:#2ca02c;stroke-linejoin:miter;stroke-opacity:0.7;" x="301.625909" xlink:href="#m54294937d3" y="215.988583"/>
     <use style="fill:#2ca02c;fill-opacity:0.7;stroke:#2ca02c;stroke-linejoin:miter;stroke-opacity:0.7;" x="340.159432" xlink:href="#m54294937d3" y="205.467572"/>
     <use style="fill:#2ca02c;fill-opacity:0.7;stroke:#2ca02c;stroke-linejoin:miter;stroke-opacity:0.7;" x="378.692955" xlink:href="#m54294937d3" y="183.852364"/>
     <use style="fill:#2ca02c;fill-opacity:0.7;stroke:#2ca02c;stroke-linejoin:miter;stroke-opacity:0.7;" x="417.226477" xlink:href="#m54294937d3" y="141.692903"/>
     <use style="fill:#2ca02c;fill-opacity:0.7;stroke:#2ca02c;stroke-linejoin:miter;stroke-opacity:0.7;" x="455.76" xlink:href="#m54294937d3" y="57.56253"/>
    </g>
   </g>
   <g id="line2d_22">
    <path d="M 31.89125 225.827801 
L 70.424773 224.440461 
L 108.958295 221.829817 
L 147.491818 216.358138 
L 186.025341 205.931402 
L 224.558864 184.493429 
L 263.092386 224.171591 
L 301.625909 221.184981 
L 340.159432 215.347518 
L 378.692955 203.619796 
L 417.226477 179.515747 
L 455.76 131.699829 
" style="fill:none;stroke:#d62728;stroke-linecap:square;stroke-opacity:0.7;stroke-width:1.5;"/>
    <defs>
     <path d="M -3 3 
L 3 3 
L 3 -3 
L -3 -3 
z
" id="m3f7baac07b" style="stroke:#d62728;stroke-linejoin:miter;stroke-opacity:0.7;"/>
    </defs>
    <g>
     <use style="fill:#d62728;fill-opacity:0.7;stroke:#d62728;stroke-linejoin:miter;stroke-opacity:0.7;" x="31.89125" xlink:href="#m3f7baac07b" y="225.827801"/>
     <use style="fill:#d62728;fill-opacity:0.7;stroke:#d62728;stroke-linejoin:miter;stroke-opacity:0.7;" x="70.424773" xlink:href="#m3f7baac07b" y="224.440461"/>
     <use style="fill:#d62728;fill-opacity:0.7;stroke:#d62728;stroke-linejoin:miter;stroke-opacity:0.7;" x="108.958295" xlink:href="#m3f7baac07b" y="221.829817"/>
     <use style="fill:#d62728;fill-opacity:0.7;stroke:#d62728;stroke-linejoin:miter;stroke-opacity:0.7;" x="147.491818" xlink:href="#m3f7baac07b" y="216.358138"/>
     <use style="fill:#d62728;fill-opacity:0.7;stroke:#d62728;stroke-linejoin:miter;stroke-opacity:0.7;" x="186.025341" xlink:href="#m3f7baac07b" y="205.931402"/>
     <use style="fill:#d62728;fill-opacity:0.7;stroke:#d62728;stroke-linejoin:miter;stroke-opacity:0.7;" x="224.558864" xlink:href="#m3f7baac07b" y="184.493429"/>
     <use style="fill:#d62728;fill-opacity:0.7;stroke:#d62728;stroke-linejoin:miter;stroke-opacity:0.7;" x="263.092386" xlink:href="#m3f7baac07b" y="224.171591"/>
     <use style="fill:#d62728;fill-opacity:0.7;stroke:#d62728;stroke-linejoin:miter;stroke-opacity:0.7;" x="301.625909" xlink:href="#m3f7baac07b" y="221.184981"/>
     <use style="fill:#d62728;fill-opacity:0.7;stroke:#d62728;stroke-linejoin:miter;stroke-opacity:0.7;" x="340.159432" xlink:href="#m3f7baac07b" y="215.347518"/>
     <use style="fill:#d62728;fill-opacity:0.7;stroke:#d62728;stroke-linejoin:miter;stroke-opacity:0.7;" x="378.692955" xlink:href="#m3f7baac07b" y="203.619796"/>
     <use style="fill:#d62728;fill-opacity:0.7;stroke:#d62728;stroke-linejoin:miter;stroke-opacity:0.7;" x="417.226477" xlink:href="#m3f7baac07b" y="179.515747"/>
     <use style="fill:#d62728;fill-opacity:0.7;stroke:#d62728;stroke-linejoin:miter;stroke-opacity:0.7;" x="455.76" xlink:href="#m3f7baac07b" y="131.699829"/>
    </g>
   </g>
   <g id="line2d_23">
    <path d="M 31.89125 226.111001 
L 70.424773 225.936405 
L 108.958295 225.480118 
L 147.491818 224.658046 
L 186.025341 223.051612 
L 224.558864 219.804806 
L 263.092386 219.235389 
L 301.625909 217.904236 
L 340.159432 215.313579 
L 378.692955 210.098325 
L 417.226477 199.498124 
L 455.76 178.610714 
" style="fill:none;stroke:#9467bd;stroke-linecap:square;stroke-opacity:0.7;stroke-width:1.5;"/>
    <defs>
     <path d="M 0 -3 
L -3 3 
L 3 3 
z
" id="mef11df7c91" style="stroke:#9467bd;stroke-linejoin:miter;stroke-opacity:0.7;"/>
    </defs>
    <g>
     <use style="fill:#9467bd;fill-opacity:0.7;stroke:#9467bd;stroke-linejoin:miter;stroke-opacity:0.7;" x="31.89125" xlink:href="#mef11df7c91" y="226.111001"/>
     <use style="fill:#9467bd;fill-opacity:0.7;stroke:#9467bd;stroke-linejoin:miter;stroke-opacity:0.7;" x="70.424773" xlink:href="#mef11df7c91" y="225.936405"/>
     <use style="fill:#9467bd;fill-opacity:0.7;stroke:#9467bd;stroke-linejoin:miter;stroke-opacity:0.7;" x="108.958295" xlink:href="#mef11df7c91" y="225.480118"/>
     <use style="fill:#9467bd;fill-opacity:0.7;stroke:#9467bd;stroke-linejoin:miter;stroke-opacity:0.7;" x="147.491818" xlink:href="#mef11df7c91" y="224.658046"/>
     <use style="fill:#9467bd;fill-opacity:0.7;stroke:#9467bd;stroke-linejoin:miter;stroke-opacity:0.7;" x="186.025341" xlink:href="#mef11df7c91" y="223.051612"/>
     <use style="fill:#9467bd;fill-opacity:0.7;stroke:#9467bd;stroke-linejoin:miter;stroke-opacity:0.7;" x="224.558864" xlink:href="#mef11df7c91" y="219.804806"/>
     <use style="fill:#9467bd;fill-opacity:0.7;stroke:#9467bd;stroke-linejoin:miter;stroke-opacity:0.7;" x="263.092386" xlink:href="#mef11df7c91" y="219.235389"/>
     <use style="fill:#9467bd;fill-opacity:0.7;stroke:#9467bd;stroke-linejoin:miter;stroke-opacity:0.7;" x="301.625909" xlink:href="#mef11df7c91" y="217.904236"/>
     <use style="fill:#9467bd;fill-opacity:0.7;stroke:#9467bd;stroke-linejoin:miter;stroke-opacity:0.7;" x="340.159432" xlink:href="#mef11df7c91" y="215.313579"/>
     <use style="fill:#9467bd;fill-opacity:0.7;stroke:#9467bd;stroke-linejoin:miter;stroke-opacity:0.7;" x="378.692955" xlink:href="#mef11df7c91" y="210.098325"/>
     <use style="fill:#9467bd;fill-opacity:0.7;stroke:#9467bd;stroke-linejoin:miter;stroke-opacity:0.7;" x="417.226477" xlink:href="#mef11df7c91" y="199.498124"/>
     <use style="fill:#9467bd;fill-opacity:0.7;stroke:#9467bd;stroke-linejoin:miter;stroke-opacity:0.7;" x="455.76" xlink:href="#mef11df7c91" y="178.610714"/>
    </g>
   </g>
   <g id="patch_3">
    <path d="M 31.89125 236.05 
L 31.89125 18.96 
" style="fill:none;stroke:#000000;stroke-linecap:square;stroke-linejoin:miter;stroke-width:0.8;"/>
   </g>
   <g id="patch_4">
    <path d="M 455.76 236.05 
L 455.76 18.96 
" style="fill:none;stroke:#000000;stroke-linecap:square;stroke-linejoin:miter;stroke-width:0.8;"/>
   </g>
   <g id="patch_5">
    <path d="M 31.89125 236.05 
L 455.76 236.05 
" style="fill:none;stroke:#000000;stroke-linecap:square;stroke-linejoin:miter;stroke-width:0.8;"/>
   </g>
   <g id="patch_6">
    <path d="M 31.89125 18.96 
L 455.76 18.96 
" style="fill:none;stroke:#000000;stroke-linecap:square;stroke-linejoin:miter;stroke-width:0.8;"/>
   </g>
   <g id="text_22">
    <!-- Benchmarking of Multigrid Method -->
    <g transform="translate(105.321875 12.96)scale(0.16 -0.16)">
     <defs>
      <path d="M 19.671875 34.8125 
L 19.671875 8.109375 
L 35.5 8.109375 
Q 43.453125 8.109375 47.28125 11.40625 
Q 51.125 14.703125 51.125 21.484375 
Q 51.125 28.328125 47.28125 31.5625 
Q 43.453125 34.8125 35.5 34.8125 
z
M 19.671875 64.796875 
L 19.671875 42.828125 
L 34.28125 42.828125 
Q 41.5 42.828125 45.03125 45.53125 
Q 48.578125 48.25 48.578125 53.8125 
Q 48.578125 59.328125 45.03125 62.0625 
Q 41.5 64.796875 34.28125 64.796875 
z
M 9.8125 72.90625 
L 35.015625 72.90625 
Q 46.296875 72.90625 52.390625 68.21875 
Q 58.5 63.53125 58.5 54.890625 
Q 58.5 48.1875 55.375 44.234375 
Q 52.25 40.28125 46.1875 39.3125 
Q 53.46875 37.75 57.5 32.78125 
Q 61.53125 27.828125 61.53125 20.40625 
Q 61.53125 10.640625 54.890625 5.3125 
Q 48.25 0 35.984375 0 
L 9.8125 0 
z
" id="DejaVuSans-66"/>
      <path d="M 54.890625 33.015625 
L 54.890625 0 
L 45.90625 0 
L 45.90625 32.71875 
Q 45.90625 40.484375 42.875 44.328125 
Q 39.84375 48.1875 33.796875 48.1875 
Q 26.515625 48.1875 22.3125 43.546875 
Q 18.109375 38.921875 18.109375 30.90625 
L 18.109375 0 
L 9.078125 0 
L 9.078125 75.984375 
L 18.109375 75.984375 
L 18.109375 46.1875 
Q 21.34375 51.125 25.703125 53.5625 
Q 30.078125 56 35.796875 56 
Q 45.21875 56 50.046875 50.171875 
Q 54.890625 44.34375 54.890625 33.015625 
z
" id="DejaVuSans-104"/>
      <path d="M 9.078125 75.984375 
L 18.109375 75.984375 
L 18.109375 31.109375 
L 44.921875 54.6875 
L 56.390625 54.6875 
L 27.390625 29.109375 
L 57.625 0 
L 45.90625 0 
L 18.109375 26.703125 
L 18.109375 0 
L 9.078125 0 
z
" id="DejaVuSans-107"/>
      <path d="M 45.40625 27.984375 
Q 45.40625 37.75 41.375 43.109375 
Q 37.359375 48.484375 30.078125 48.484375 
Q 22.859375 48.484375 18.828125 43.109375 
Q 14.796875 37.75 14.796875 27.984375 
Q 14.796875 18.265625 18.828125 12.890625 
Q 22.859375 7.515625 30.078125 7.515625 
Q 37.359375 7.515625 41.375 12.890625 
Q 45.40625 18.265625 45.40625 27.984375 
z
M 54.390625 6.78125 
Q 54.390625 -7.171875 48.1875 -13.984375 
Q 42 -20.796875 29.203125 -20.796875 
Q 24.46875 -20.796875 20.265625 -20.09375 
Q 16.0625 -19.390625 12.109375 -17.921875 
L 12.109375 -9.1875 
Q 16.0625 -11.328125 19.921875 -12.34375 
Q 23.78125 -13.375 27.78125 -13.375 
Q 36.625 -13.375 41.015625 -8.765625 
Q 45.40625 -4.15625 45.40625 5.171875 
L 45.40625 9.625 
Q 42.625 4.78125 38.28125 2.390625 
Q 33.9375 0 27.875 0 
Q 17.828125 0 11.671875 7.65625 
Q 5.515625 15.328125 5.515625 27.984375 
Q 5.515625 40.671875 11.671875 48.328125 
Q 17.828125 56 27.875 56 
Q 33.9375 56 38.28125 53.609375 
Q 42.625 51.21875 45.40625 46.390625 
L 45.40625 54.6875 
L 54.390625 54.6875 
z
" id="DejaVuSans-103"/>
      <path d="M 37.109375 75.984375 
L 37.109375 68.5 
L 28.515625 68.5 
Q 23.6875 68.5 21.796875 66.546875 
Q 19.921875 64.59375 19.921875 59.515625 
L 19.921875 54.6875 
L 34.71875 54.6875 
L 34.71875 47.703125 
L 19.921875 47.703125 
L 19.921875 0 
L 10.890625 0 
L 10.890625 47.703125 
L 2.296875 47.703125 
L 2.296875 54.6875 
L 10.890625 54.6875 
L 10.890625 58.5 
Q 10.890625 67.625 15.140625 71.796875 
Q 19.390625 75.984375 28.609375 75.984375 
z
" id="DejaVuSans-102"/>
      <path d="M 8.5 21.578125 
L 8.5 54.6875 
L 17.484375 54.6875 
L 17.484375 21.921875 
Q 17.484375 14.15625 20.5 10.265625 
Q 23.53125 6.390625 29.59375 6.390625 
Q 36.859375 6.390625 41.078125 11.03125 
Q 45.3125 15.671875 45.3125 23.6875 
L 45.3125 54.6875 
L 54.296875 54.6875 
L 54.296875 0 
L 45.3125 0 
L 45.3125 8.40625 
Q 42.046875 3.421875 37.71875 1 
Q 33.40625 -1.421875 27.6875 -1.421875 
Q 18.265625 -1.421875 13.375 4.4375 
Q 8.5 10.296875 8.5 21.578125 
z
M 31.109375 56 
z
" id="DejaVuSans-117"/>
      <path d="M 45.40625 46.390625 
L 45.40625 75.984375 
L 54.390625 75.984375 
L 54.390625 0 
L 45.40625 0 
L 45.40625 8.203125 
Q 42.578125 3.328125 38.25 0.953125 
Q 33.9375 -1.421875 27.875 -1.421875 
Q 17.96875 -1.421875 11.734375 6.484375 
Q 5.515625 14.40625 5.515625 27.296875 
Q 5.515625 40.1875 11.734375 48.09375 
Q 17.96875 56 27.875 56 
Q 33.9375 56 38.25 53.625 
Q 42.578125 51.265625 45.40625 46.390625 
z
M 14.796875 27.296875 
Q 14.796875 17.390625 18.875 11.75 
Q 22.953125 6.109375 30.078125 6.109375 
Q 37.203125 6.109375 41.296875 11.75 
Q 45.40625 17.390625 45.40625 27.296875 
Q 45.40625 37.203125 41.296875 42.84375 
Q 37.203125 48.484375 30.078125 48.484375 
Q 22.953125 48.484375 18.875 42.84375 
Q 14.796875 37.203125 14.796875 27.296875 
z
" id="DejaVuSans-100"/>
     </defs>
     <use xlink:href="#DejaVuSans-66"/>
     <use x="68.603516" xlink:href="#DejaVuSans-101"/>
     <use x="130.126953" xlink:href="#DejaVuSans-110"/>
     <use x="193.505859" xlink:href="#DejaVuSans-99"/>
     <use x="248.486328" xlink:href="#DejaVuSans-104"/>
     <use x="311.865234" xlink:href="#DejaVuSans-109"/>
     <use x="409.277344" xlink:href="#DejaVuSans-97"/>
     <use x="470.556641" xlink:href="#DejaVuSans-114"/>
     <use x="511.669922" xlink:href="#DejaVuSans-107"/>
     <use x="569.580078" xlink:href="#DejaVuSans-105"/>
     <use x="597.363281" xlink:href="#DejaVuSans-110"/>
     <use x="660.742188" xlink:href="#DejaVuSans-103"/>
     <use x="724.21875" xlink:href="#DejaVuSans-32"/>
     <use x="756.005859" xlink:href="#DejaVuSans-111"/>
     <use x="817.1875" xlink:href="#DejaVuSans-102"/>
     <use x="852.392578" xlink:href="#DejaVuSans-32"/>
     <use x="884.179688" xlink:href="#DejaVuSans-77"/>
     <use x="970.458984" xlink:href="#DejaVuSans-117"/>
     <use x="1033.837891" xlink:href="#DejaVuSans-108"/>
     <use x="1061.621094" xlink:href="#DejaVuSans-116"/>
     <use x="1100.830078" xlink:href="#DejaVuSans-105"/>
     <use x="1128.613281" xlink:href="#DejaVuSans-103"/>
     <use x="1192.089844" xlink:href="#DejaVuSans-114"/>
     <use x="1233.203125" xlink:href="#DejaVuSans-105"/>
     <use x="1260.986328" xlink:href="#DejaVuSans-100"/>
     <use x="1324.462891" xlink:href="#DejaVuSans-32"/>
     <use x="1356.25" xlink:href="#DejaVuSans-77"/>
     <use x="1442.529297" xlink:href="#DejaVuSans-101"/>
     <use x="1504.052734" xlink:href="#DejaVuSans-116"/>
     <use x="1543.261719" xlink:href="#DejaVuSans-104"/>
     <use x="1606.640625" xlink:href="#DejaVuSans-111"/>
     <use x="1667.822266" xlink:href="#DejaVuSans-100"/>
    </g>
   </g>
   <g id="legend_1">
    <g id="patch_7">
     <path d="M 38.89125 115.02875 
L 152.689688 115.02875 
Q 154.689688 115.02875 154.689688 113.02875 
L 154.689688 25.96 
Q 154.689688 23.96 152.689688 23.96 
L 38.89125 23.96 
Q 36.89125 23.96 36.89125 25.96 
L 36.89125 113.02875 
Q 36.89125 115.02875 38.89125 115.02875 
z
" style="fill:#ffffff;opacity:0.8;stroke:#cccccc;stroke-linejoin:miter;"/>
    </g>
    <g id="text_23">
     <!-- Shade: std dev -->
     <g transform="translate(58.320938 35.558438)scale(0.1 -0.1)">
      <defs>
       <path d="M 11.71875 12.40625 
L 22.015625 12.40625 
L 22.015625 0 
L 11.71875 0 
z
M 11.71875 51.703125 
L 22.015625 51.703125 
L 22.015625 39.3125 
L 11.71875 39.3125 
z
" id="DejaVuSans-58"/>
       <path d="M 2.984375 54.6875 
L 12.5 54.6875 
L 29.59375 8.796875 
L 46.6875 54.6875 
L 56.203125 54.6875 
L 35.6875 0 
L 23.484375 0 
z
" id="DejaVuSans-118"/>
      </defs>
      <use xlink:href="#DejaVuSans-83"/>
      <use x="63.476562" xlink:href="#DejaVuSans-104"/>
      <use x="126.855469" xlink:href="#DejaVuSans-97"/>
      <use x="188.134766" xlink:href="#DejaVuSans-100"/>
      <use x="251.611328" xlink:href="#DejaVuSans-101"/>
      <use x="313.134766" xlink:href="#DejaVuSans-58"/>
      <use x="346.826172" xlink:href="#DejaVuSans-32"/>
      <use x="378.613281" xlink:href="#DejaVuSans-115"/>
      <use x="430.712891" xlink:href="#DejaVuSans-116"/>
      <use x="469.921875" xlink:href="#DejaVuSans-100"/>
      <use x="533.398438" xlink:href="#DejaVuSans-32"/>
      <use x="565.185547" xlink:href="#DejaVuSans-100"/>
      <use x="628.662109" xlink:href="#DejaVuSans-101"/>
      <use x="690.185547" xlink:href="#DejaVuSans-118"/>
     </g>
    </g>
    <g id="line2d_24">
     <path d="M 40.89125 46.736563 
L 60.89125 46.736563 
" style="fill:none;stroke:#1f77b4;stroke-linecap:square;stroke-opacity:0.7;stroke-width:1.5;"/>
    </g>
    <g id="line2d_25">
     <g>
      <use style="fill:#1f77b4;fill-opacity:0.7;stroke:#1f77b4;stroke-opacity:0.7;" x="50.89125" xlink:href="#m253f179bcc" y="46.736563"/>
     </g>
    </g>
    <g id="text_24">
     <!-- CPU No-Fusion -->
     <g transform="translate(68.89125 50.236563)scale(0.1 -0.1)">
      <defs>
       <path d="M 64.40625 67.28125 
L 64.40625 56.890625 
Q 59.421875 61.53125 53.78125 63.8125 
Q 48.140625 66.109375 41.796875 66.109375 
Q 29.296875 66.109375 22.65625 58.46875 
Q 16.015625 50.828125 16.015625 36.375 
Q 16.015625 21.96875 22.65625 14.328125 
Q 29.296875 6.6875 41.796875 6.6875 
Q 48.140625 6.6875 53.78125 8.984375 
Q 59.421875 11.28125 64.40625 15.921875 
L 64.40625 5.609375 
Q 59.234375 2.09375 53.4375 0.328125 
Q 47.65625 -1.421875 41.21875 -1.421875 
Q 24.65625 -1.421875 15.125 8.703125 
Q 5.609375 18.84375 5.609375 36.375 
Q 5.609375 53.953125 15.125 64.078125 
Q 24.65625 74.21875 41.21875 74.21875 
Q 47.75 74.21875 53.53125 72.484375 
Q 59.328125 70.75 64.40625 67.28125 
z
" id="DejaVuSans-67"/>
       <path d="M 19.671875 64.796875 
L 19.671875 37.40625 
L 32.078125 37.40625 
Q 38.96875 37.40625 42.71875 40.96875 
Q 46.484375 44.53125 46.484375 51.125 
Q 46.484375 57.671875 42.71875 61.234375 
Q 38.96875 64.796875 32.078125 64.796875 
z
M 9.8125 72.90625 
L 32.078125 72.90625 
Q 44.34375 72.90625 50.609375 67.359375 
Q 56.890625 61.8125 56.890625 51.125 
Q 56.890625 40.328125 50.609375 34.8125 
Q 44.34375 29.296875 32.078125 29.296875 
L 19.671875 29.296875 
L 19.671875 0 
L 9.8125 0 
z
" id="DejaVuSans-80"/>
       <path d="M 8.6875 72.90625 
L 18.609375 72.90625 
L 18.609375 28.609375 
Q 18.609375 16.890625 22.84375 11.734375 
Q 27.09375 6.59375 36.625 6.59375 
Q 46.09375 6.59375 50.34375 11.734375 
Q 54.59375 16.890625 54.59375 28.609375 
L 54.59375 72.90625 
L 64.5 72.90625 
L 64.5 27.390625 
Q 64.5 13.140625 57.4375 5.859375 
Q 50.390625 -1.421875 36.625 -1.421875 
Q 22.796875 -1.421875 15.734375 5.859375 
Q 8.6875 13.140625 8.6875 27.390625 
z
" id="DejaVuSans-85"/>
       <path d="M 9.8125 72.90625 
L 23.09375 72.90625 
L 55.421875 11.921875 
L 55.421875 72.90625 
L 64.984375 72.90625 
L 64.984375 0 
L 51.703125 0 
L 19.390625 60.984375 
L 19.390625 0 
L 9.8125 0 
z
" id="DejaVuSans-78"/>
       <path d="M 4.890625 31.390625 
L 31.203125 31.390625 
L 31.203125 23.390625 
L 4.890625 23.390625 
z
" id="DejaVuSans-45"/>
       <path d="M 9.8125 72.90625 
L 51.703125 72.90625 
L 51.703125 64.59375 
L 19.671875 64.59375 
L 19.671875 43.109375 
L 48.578125 43.109375 
L 48.578125 34.8125 
L 19.671875 34.8125 
L 19.671875 0 
L 9.8125 0 
z
" id="DejaVuSans-70"/>
      </defs>
      <use xlink:href="#DejaVuSans-67"/>
      <use x="69.824219" xlink:href="#DejaVuSans-80"/>
      <use x="130.126953" xlink:href="#DejaVuSans-85"/>
      <use x="203.320312" xlink:href="#DejaVuSans-32"/>
      <use x="235.107422" xlink:href="#DejaVuSans-78"/>
      <use x="309.912109" xlink:href="#DejaVuSans-111"/>
      <use x="372.96875" xlink:href="#DejaVuSans-45"/>
      <use x="409.052734" xlink:href="#DejaVuSans-70"/>
      <use x="461.072266" xlink:href="#DejaVuSans-117"/>
      <use x="524.451172" xlink:href="#DejaVuSans-115"/>
      <use x="576.550781" xlink:href="#DejaVuSans-105"/>
      <use x="604.333984" xlink:href="#DejaVuSans-111"/>
      <use x="665.515625" xlink:href="#DejaVuSans-110"/>
     </g>
    </g>
    <g id="line2d_26">
     <path d="M 40.89125 61.414688 
L 60.89125 61.414688 
" style="fill:none;stroke:#ff7f0e;stroke-linecap:square;stroke-opacity:0.7;stroke-width:1.5;"/>
    </g>
    <g id="line2d_27">
     <g>
      <use style="fill:#ff7f0e;fill-opacity:0.7;stroke:#ff7f0e;stroke-opacity:0.7;" x="50.89125" xlink:href="#m378f1f4efc" y="61.414688"/>
     </g>
    </g>
    <g id="text_25">
     <!-- CPU With-Fusion -->
     <g transform="translate(68.89125 64.914688)scale(0.1 -0.1)">
      <defs>
       <path d="M 3.328125 72.90625 
L 13.28125 72.90625 
L 28.609375 11.28125 
L 43.890625 72.90625 
L 54.984375 72.90625 
L 70.3125 11.28125 
L 85.59375 72.90625 
L 95.609375 72.90625 
L 77.296875 0 
L 64.890625 0 
L 49.515625 63.28125 
L 33.984375 0 
L 21.578125 0 
z
" id="DejaVuSans-87"/>
      </defs>
      <use xlink:href="#DejaVuSans-67"/>
      <use x="69.824219" xlink:href="#DejaVuSans-80"/>
      <use x="130.126953" xlink:href="#DejaVuSans-85"/>
      <use x="203.320312" xlink:href="#DejaVuSans-32"/>
      <use x="235.107422" xlink:href="#DejaVuSans-87"/>
      <use x="331.734375" xlink:href="#DejaVuSans-105"/>
      <use x="359.517578" xlink:href="#DejaVuSans-116"/>
      <use x="398.726562" xlink:href="#DejaVuSans-104"/>
      <use x="462.105469" xlink:href="#DejaVuSans-45"/>
      <use x="498.189453" xlink:href="#DejaVuSans-70"/>
      <use x="550.208984" xlink:href="#DejaVuSans-117"/>
      <use x="613.587891" xlink:href="#DejaVuSans-115"/>
      <use x="665.6875" xlink:href="#DejaVuSans-105"/>
      <use x="693.470703" xlink:href="#DejaVuSans-111"/>
      <use x="754.652344" xlink:href="#DejaVuSans-110"/>
     </g>
    </g>
    <g id="line2d_28">
     <path d="M 40.89125 76.092813 
L 60.89125 76.092813 
" style="fill:none;stroke:#2ca02c;stroke-linecap:square;stroke-opacity:0.7;stroke-width:1.5;"/>
    </g>
    <g id="line2d_29">
     <g>
      <use style="fill:#2ca02c;fill-opacity:0.7;stroke:#2ca02c;stroke-linejoin:miter;stroke-opacity:0.7;" x="50.89125" xlink:href="#m54294937d3" y="76.092813"/>
     </g>
    </g>
    <g id="text_26">
     <!-- PTX No-Fusion -->
     <g transform="translate(68.89125 79.592813)scale(0.1 -0.1)">
      <defs>
       <path d="M 6.296875 72.90625 
L 16.890625 72.90625 
L 35.015625 45.796875 
L 53.21875 72.90625 
L 63.8125 72.90625 
L 40.375 37.890625 
L 65.375 0 
L 54.78125 0 
L 34.28125 31 
L 13.625 0 
L 2.984375 0 
L 29 38.921875 
z
" id="DejaVuSans-88"/>
      </defs>
      <use xlink:href="#DejaVuSans-80"/>
      <use x="60.302734" xlink:href="#DejaVuSans-84"/>
      <use x="121.386719" xlink:href="#DejaVuSans-88"/>
      <use x="189.892578" xlink:href="#DejaVuSans-32"/>
      <use x="221.679688" xlink:href="#DejaVuSans-78"/>
      <use x="296.484375" xlink:href="#DejaVuSans-111"/>
      <use x="359.541016" xlink:href="#DejaVuSans-45"/>
      <use x="395.625" xlink:href="#DejaVuSans-70"/>
      <use x="447.644531" xlink:href="#DejaVuSans-117"/>
      <use x="511.023438" xlink:href="#DejaVuSans-115"/>
      <use x="563.123047" xlink:href="#DejaVuSans-105"/>
      <use x="590.90625" xlink:href="#DejaVuSans-111"/>
      <use x="652.087891" xlink:href="#DejaVuSans-110"/>
     </g>
    </g>
    <g id="line2d_30">
     <path d="M 40.89125 90.770938 
L 60.89125 90.770938 
" style="fill:none;stroke:#d62728;stroke-linecap:square;stroke-opacity:0.7;stroke-width:1.5;"/>
    </g>
    <g id="line2d_31">
     <g>
      <use style="fill:#d62728;fill-opacity:0.7;stroke:#d62728;stroke-linejoin:miter;stroke-opacity:0.7;" x="50.89125" xlink:href="#m3f7baac07b" y="90.770938"/>
     </g>
    </g>
    <g id="text_27">
     <!-- PTX With-Fusion -->
     <g transform="translate(68.89125 94.270938)scale(0.1 -0.1)">
      <use xlink:href="#DejaVuSans-80"/>
      <use x="60.302734" xlink:href="#DejaVuSans-84"/>
      <use x="121.386719" xlink:href="#DejaVuSans-88"/>
      <use x="189.892578" xlink:href="#DejaVuSans-32"/>
      <use x="221.679688" xlink:href="#DejaVuSans-87"/>
      <use x="318.306641" xlink:href="#DejaVuSans-105"/>
      <use x="346.089844" xlink:href="#DejaVuSans-116"/>
      <use x="385.298828" xlink:href="#DejaVuSans-104"/>
      <use x="448.677734" xlink:href="#DejaVuSans-45"/>
      <use x="484.761719" xlink:href="#DejaVuSans-70"/>
      <use x="536.78125" xlink:href="#DejaVuSans-117"/>
      <use x="600.160156" xlink:href="#DejaVuSans-115"/>
      <use x="652.259766" xlink:href="#DejaVuSans-105"/>
      <use x="680.042969" xlink:href="#DejaVuSans-111"/>
      <use x="741.224609" xlink:href="#DejaVuSans-110"/>
     </g>
    </g>
    <g id="line2d_32">
     <path d="M 40.89125 105.449063 
L 60.89125 105.449063 
" style="fill:none;stroke:#9467bd;stroke-linecap:square;stroke-opacity:0.7;stroke-width:1.5;"/>
    </g>
    <g id="line2d_33">
     <g>
      <use style="fill:#9467bd;fill-opacity:0.7;stroke:#9467bd;stroke-linejoin:miter;stroke-opacity:0.7;" x="50.89125" xlink:href="#mef11df7c91" y="105.449063"/>
     </g>
    </g>
    <g id="text_28">
     <!-- Vulkan -->
     <g transform="translate(68.89125 108.949063)scale(0.1 -0.1)">
      <defs>
       <path d="M 28.609375 0 
L 0.78125 72.90625 
L 11.078125 72.90625 
L 34.1875 11.53125 
L 57.328125 72.90625 
L 67.578125 72.90625 
L 39.796875 0 
z
" id="DejaVuSans-86"/>
      </defs>
      <use xlink:href="#DejaVuSans-86"/>
      <use x="61.658203" xlink:href="#DejaVuSans-117"/>
      <use x="125.037109" xlink:href="#DejaVuSans-108"/>
      <use x="152.820312" xlink:href="#DejaVuSans-107"/>
      <use x="208.980469" xlink:href="#DejaVuSans-97"/>
      <use x="270.259766" xlink:href="#DejaVuSans-110"/>
     </g>
    </g>
   </g>
  </g>
 </g>
</svg>
